<svg width="120" height="24" viewBox="0 0 120 24" fill="none" xmlns="http://www.w3.org/2000/svg">
<path d="M116.67 8.57023C117.665 8.57023 118.468 8.88523 119.081 9.51523C119.694 10.1352 120 11.0052 120 12.1252V17.0002H117.891V12.4102C117.891 11.7502 117.725 11.2452 117.393 10.8952C117.062 10.5352 116.61 10.3552 116.037 10.3552C115.455 10.3552 114.993 10.5352 114.651 10.8952C114.32 11.2452 114.154 11.7502 114.154 12.4102V17.0002H112.044V8.69024H114.154V9.72523C114.435 9.36523 114.792 9.08523 115.224 8.88523C115.666 8.67523 116.148 8.57023 116.67 8.57023Z" fill="#1C1C1C"/>
<path d="M108.92 7.70023C108.549 7.70023 108.237 7.58524 107.986 7.35524C107.745 7.11523 107.625 6.82023 107.625 6.47023C107.625 6.12023 107.745 5.83023 107.986 5.60023C108.237 5.36023 108.549 5.24023 108.92 5.24023C109.292 5.24023 109.599 5.36023 109.84 5.60023C110.091 5.83023 110.216 6.12023 110.216 6.47023C110.216 6.82023 110.091 7.11523 109.84 7.35524C109.599 7.58524 109.292 7.70023 108.92 7.70023ZM109.96 8.69024V17.0002H107.851V8.69024H109.96Z" fill="#1C1C1C"/>
<path d="M97.0964 12.8152C97.0964 11.9752 97.2621 11.2302 97.5936 10.5802C97.9352 9.93023 98.3922 9.43024 98.9648 9.08024C99.5474 8.73024 100.195 8.55523 100.909 8.55523C101.531 8.55523 102.074 8.68024 102.536 8.93023C103.008 9.18024 103.385 9.49523 103.666 9.87523V8.69024H105.79V17.0002H103.666V15.7852C103.395 16.1752 103.018 16.5002 102.536 16.7602C102.064 17.0102 101.516 17.1352 100.893 17.1352C100.19 17.1352 99.5474 16.9552 98.9648 16.5952C98.3922 16.2352 97.9352 15.7302 97.5936 15.0802C97.2621 14.4202 97.0964 13.6652 97.0964 12.8152ZM103.666 12.8452C103.666 12.3352 103.565 11.9002 103.365 11.5402C103.164 11.1702 102.892 10.8902 102.551 10.7002C102.209 10.5002 101.843 10.4002 101.451 10.4002C101.059 10.4002 100.698 10.4952 100.366 10.6852C100.035 10.8752 99.7634 11.1552 99.5524 11.5252C99.3515 11.8852 99.2511 12.3152 99.2511 12.8152C99.2511 13.3152 99.3515 13.7552 99.5524 14.1352C99.7634 14.5052 100.035 14.7902 100.366 14.9902C100.708 15.1902 101.069 15.2902 101.451 15.2902C101.843 15.2902 102.209 15.1952 102.551 15.0052C102.892 14.8052 103.164 14.5252 103.365 14.1652C103.565 13.7952 103.666 13.3552 103.666 12.8452Z" fill="#1C1C1C"/>
<path d="M92.3782 8.57023C93.0111 8.57023 93.5736 8.71023 94.0658 8.99023C94.558 9.26023 94.9397 9.66523 95.211 10.2052C95.4922 10.7352 95.6328 11.3752 95.6328 12.1252V17.0002H93.5234V12.4102C93.5234 11.7502 93.3576 11.2452 93.0261 10.8952C92.6947 10.5352 92.2426 10.3552 91.6701 10.3552C91.0875 10.3552 90.6254 10.5352 90.2838 10.8952C89.9523 11.2452 89.7866 11.7502 89.7866 12.4102V17.0002H87.6771V5.90023H89.7866V9.72523C90.0578 9.36523 90.4195 9.08523 90.8715 8.88523C91.3235 8.67523 91.8258 8.57023 92.3782 8.57023Z" fill="#1C1C1C"/>
<path d="M75.5993 11.7502C75.5993 10.7202 75.8303 9.80023 76.2924 8.99023C76.7645 8.17023 77.4024 7.53523 78.206 7.08523C79.0196 6.62523 79.9287 6.39523 80.9332 6.39523C82.1085 6.39523 83.1381 6.69523 84.0221 7.29523C84.906 7.89523 85.5238 8.72523 85.8754 9.78523H83.4495C83.2084 9.28523 82.8669 8.91023 82.4249 8.66023C81.993 8.41023 81.4907 8.28523 80.9181 8.28523C80.3054 8.28523 79.7579 8.43023 79.2758 8.72023C78.8036 9.00023 78.432 9.40023 78.1608 9.92023C77.8996 10.4402 77.769 11.0502 77.769 11.7502C77.769 12.4402 77.8996 13.0502 78.1608 13.5802C78.432 14.1002 78.8036 14.5052 79.2758 14.7952C79.7579 15.0752 80.3054 15.2152 80.9181 15.2152C81.4907 15.2152 81.993 15.0902 82.4249 14.8402C82.8669 14.5802 83.2084 14.2002 83.4495 13.7002H85.8754C85.5238 14.7702 84.906 15.6052 84.0221 16.2052C83.1481 16.7952 82.1185 17.0902 80.9332 17.0902C79.9287 17.0902 79.0196 16.8652 78.206 16.4152C77.4024 15.9552 76.7645 15.3202 76.2924 14.5102C75.8303 13.7002 75.5993 12.7802 75.5993 11.7502Z" fill="#1C1C1C"/>
<path d="M61.767 12.8152C61.767 11.9752 61.9327 11.2302 62.2642 10.5802C62.6057 9.93023 63.0628 9.43024 63.6353 9.08024C64.218 8.73024 64.8659 8.55523 65.5791 8.55523C66.2019 8.55523 66.7443 8.68024 67.2064 8.93023C67.6785 9.18024 68.0552 9.49523 68.3364 9.87523V8.69024H70.461V17.0002H68.3364V15.7852C68.0652 16.1752 67.6885 16.5002 67.2064 16.7602C66.7342 17.0102 66.1868 17.1352 65.564 17.1352C64.8608 17.1352 64.218 16.9552 63.6353 16.5952C63.0628 16.2352 62.6057 15.7302 62.2642 15.0802C61.9327 14.4202 61.767 13.6652 61.767 12.8152ZM68.3364 12.8452C68.3364 12.3352 68.236 11.9002 68.0351 11.5402C67.8342 11.1702 67.563 10.8902 67.2214 10.7002C66.8799 10.5002 66.5133 10.4002 66.1215 10.4002C65.7297 10.4002 65.3681 10.4952 65.0366 10.6852C64.7051 10.8752 64.4339 11.1552 64.223 11.5252C64.0221 11.8852 63.9216 12.3152 63.9216 12.8152C63.9216 13.3152 64.0221 13.7552 64.223 14.1352C64.4339 14.5052 64.7051 14.7902 65.0366 14.9902C65.3782 15.1902 65.7398 15.2902 66.1215 15.2902C66.5133 15.2902 66.8799 15.1952 67.2214 15.0052C67.563 14.8052 67.8342 14.5252 68.0351 14.1652C68.236 13.7952 68.3364 13.3552 68.3364 12.8452Z" fill="#1C1C1C"/>
<path d="M57.0488 8.57023C57.6816 8.57023 58.2442 8.71023 58.7364 8.99023C59.2286 9.26023 59.6103 9.66523 59.8815 10.2052C60.1628 10.7352 60.3034 11.3752 60.3034 12.1252V17.0002H58.1939V12.4102C58.1939 11.7502 58.0282 11.2452 57.6967 10.8952C57.3652 10.5352 56.9132 10.3552 56.3406 10.3552C55.758 10.3552 55.2959 10.5352 54.9544 10.8952C54.6229 11.2452 54.4572 11.7502 54.4572 12.4102V17.0002H52.3477V5.90023H54.4572V9.72523C54.7284 9.36523 55.09 9.08523 55.542 8.88523C55.9941 8.67523 56.4963 8.57023 57.0488 8.57023Z" fill="#1C1C1C"/>
<path d="M44.2453 9.89023C44.5165 9.51024 44.8882 9.19524 45.3603 8.94524C45.8425 8.68524 46.3899 8.55523 47.0027 8.55523C47.7159 8.55523 48.3588 8.73024 48.9313 9.08024C49.514 9.43024 49.971 9.93023 50.3025 10.5802C50.644 11.2202 50.8148 11.9652 50.8148 12.8152C50.8148 13.6652 50.644 14.4202 50.3025 15.0802C49.971 15.7302 49.514 16.2352 48.9313 16.5952C48.3588 16.9552 47.7159 17.1352 47.0027 17.1352C46.3899 17.1352 45.8475 17.0102 45.3754 16.7602C44.9133 16.5102 44.5366 16.1952 44.2453 15.8152V20.9602H42.1358V8.69024H44.2453V9.89023ZM48.6601 12.8152C48.6601 12.3152 48.5547 11.8852 48.3437 11.5252C48.1428 11.1552 47.8716 10.8752 47.5301 10.6852C47.1986 10.4952 46.8369 10.4002 46.4452 10.4002C46.0635 10.4002 45.7018 10.5002 45.3603 10.7002C45.0288 10.8902 44.7576 11.1702 44.5467 11.5402C44.3458 11.9102 44.2453 12.3452 44.2453 12.8452C44.2453 13.3452 44.3458 13.7802 44.5467 14.1502C44.7576 14.5202 45.0288 14.8052 45.3603 15.0052C45.7018 15.1952 46.0635 15.2902 46.4452 15.2902C46.8369 15.2902 47.1986 15.1902 47.5301 14.9902C47.8716 14.7902 48.1428 14.5052 48.3437 14.1352C48.5547 13.7652 48.6601 13.3252 48.6601 12.8152Z" fill="#1C1C1C"/>
<path d="M40.0517 5.90023V17.0002H37.9422V5.90023H40.0517Z" fill="#1C1C1C"/>
<path d="M33.6055 15.0052H29.4167L28.7235 17.0002H26.5086L30.2906 6.51523H32.7466L36.5286 17.0002H34.2986L33.6055 15.0052ZM33.0329 13.3252L31.5111 8.94524L29.9892 13.3252H33.0329Z" fill="#1C1C1C"/>
<path d="M24.1082 12C24.1082 18.6274 18.7114 24 12.0541 24C5.3968 24 0 18.6274 0 12C0 5.37258 5.3968 0 12.0541 0C18.7114 0 24.1082 5.37258 24.1082 12Z" fill="#4B5EF5"/>
<path d="M12.0549 4.00078C16.4931 4.00078 20.0909 7.5825 20.0909 12.0008C20.0909 12.6626 20.0097 13.3056 19.8575 13.9207H16.6507C16.8999 13.3302 17.0372 12.6814 17.0372 12.0008C17.0372 9.26145 14.8066 7.04082 12.0549 7.04082C9.30321 7.04083 7.07257 9.26146 7.07256 12.0008C7.07256 14.7401 9.3032 16.9607 12.0549 16.9607H18.3605C16.8887 18.8125 14.6111 20.0008 12.0549 20.0008C7.61668 20.0008 4.01882 16.4191 4.01882 12.0008C4.01883 7.58251 7.61669 4.00079 12.0549 4.00078Z" fill="#F8F9FC"/>
<path d="M13.18 10.0809C13.6237 10.0809 13.9832 10.439 13.9835 10.8807V13.1209C13.9835 13.5627 13.6239 13.9207 13.18 13.9207H10.9297C10.4861 13.9205 10.1263 13.5626 10.1263 13.1209V10.8807C10.1265 10.4391 10.4862 10.0811 10.9297 10.0809H13.18Z" fill="#F8F9FC"/>
</svg>
