<svg width="120" height="24" viewBox="0 0 120 24" fill="none" xmlns="http://www.w3.org/2000/svg">
<path d="M116.698 8.57023C117.684 8.57023 118.481 8.88523 119.089 9.51523C119.696 10.1352 120 11.0052 120 12.1252V17.0002H117.908V12.4102C117.908 11.7502 117.744 11.2452 117.415 10.8952C117.086 10.5352 116.638 10.3552 116.07 10.3552C115.492 10.3552 115.034 10.5352 114.695 10.8952C114.367 11.2452 114.202 11.7502 114.202 12.4102V17.0002H112.11V8.69024H114.202V9.72523C114.481 9.36523 114.835 9.08523 115.263 8.88523C115.702 8.67523 116.18 8.57023 116.698 8.57023Z" fill="white"/>
<path d="M109.012 7.70023C108.644 7.70023 108.335 7.58524 108.086 7.35524C107.847 7.11523 107.727 6.82023 107.727 6.47023C107.727 6.12023 107.847 5.83023 108.086 5.60023C108.335 5.36023 108.644 5.24023 109.012 5.24023C109.381 5.24023 109.685 5.36023 109.924 5.60023C110.173 5.83023 110.298 6.12023 110.298 6.47023C110.298 6.82023 110.173 7.11523 109.924 7.35524C109.685 7.58524 109.381 7.70023 109.012 7.70023ZM110.043 8.69024V17.0002H107.952V8.69024H110.043Z" fill="white"/>
<path d="M97.2865 12.8152C97.2865 11.9752 97.4509 11.2302 97.7796 10.5802C98.1183 9.93023 98.5716 9.43024 99.1394 9.08024C99.7172 8.73024 100.36 8.55523 101.067 8.55523C101.685 8.55523 102.223 8.68024 102.681 8.93023C103.149 9.18024 103.523 9.49523 103.801 9.87523V8.69024H105.908V17.0002H103.801V15.7852C103.533 16.1752 103.159 16.5002 102.681 16.7602C102.213 17.0102 101.67 17.1352 101.052 17.1352C100.355 17.1352 99.7172 16.9552 99.1394 16.5952C98.5716 16.2352 98.1183 15.7302 97.7796 15.0802C97.4509 14.4202 97.2865 13.6652 97.2865 12.8152ZM103.801 12.8452C103.801 12.3352 103.702 11.9002 103.503 11.5402C103.303 11.1702 103.034 10.8902 102.696 10.7002C102.357 10.5002 101.993 10.4002 101.605 10.4002C101.216 10.4002 100.858 10.4952 100.529 10.6852C100.2 10.8752 99.9314 11.1552 99.7222 11.5252C99.5229 11.8852 99.4233 12.3152 99.4233 12.8152C99.4233 13.3152 99.5229 13.7552 99.7222 14.1352C99.9314 14.5052 100.2 14.7902 100.529 14.9902C100.868 15.1902 101.226 15.2902 101.605 15.2902C101.993 15.2902 102.357 15.1952 102.696 15.0052C103.034 14.8052 103.303 14.5252 103.503 14.1652C103.702 13.7952 103.801 13.3552 103.801 12.8452Z" fill="white"/>
<path d="M92.6075 8.57023C93.2351 8.57023 93.793 8.71023 94.2811 8.99023C94.7692 9.26023 95.1478 9.66523 95.4167 10.2052C95.6957 10.7352 95.8351 11.3752 95.8351 12.1252V17.0002H93.7432V12.4102C93.7432 11.7502 93.5788 11.2452 93.2501 10.8952C92.9213 10.5352 92.4731 10.3552 91.9052 10.3552C91.3275 10.3552 90.8692 10.5352 90.5305 10.8952C90.2018 11.2452 90.0374 11.7502 90.0374 12.4102V17.0002H87.9455V5.90023H90.0374V9.72523C90.3064 9.36523 90.665 9.08523 91.1133 8.88523C91.5616 8.67523 92.0596 8.57023 92.6075 8.57023Z" fill="white"/>
<path d="M75.9678 11.7502C75.9678 10.7202 76.197 9.80023 76.6552 8.99023C77.1234 8.17023 77.756 7.53523 78.5529 7.08523C79.3598 6.62523 80.2613 6.39523 81.2575 6.39523C82.423 6.39523 83.4441 6.69523 84.3207 7.29523C85.1974 7.89523 85.81 8.72523 86.1587 9.78523H83.7529C83.5138 9.28523 83.1751 8.91023 82.7368 8.66023C82.3085 8.41023 81.8104 8.28523 81.2426 8.28523C80.6349 8.28523 80.092 8.43023 79.6138 8.72023C79.1456 9.00023 78.777 9.40023 78.5081 9.92023C78.2491 10.4402 78.1196 11.0502 78.1196 11.7502C78.1196 12.4402 78.2491 13.0502 78.5081 13.5802C78.777 14.1002 79.1456 14.5052 79.6138 14.7952C80.092 15.0752 80.6349 15.2152 81.2426 15.2152C81.8104 15.2152 82.3085 15.0902 82.7368 14.8402C83.1751 14.5802 83.5138 14.2002 83.7529 13.7002H86.1587C85.81 14.7702 85.1974 15.6052 84.3207 16.2052C83.4541 16.7952 82.433 17.0902 81.2575 17.0902C80.2613 17.0902 79.3598 16.8652 78.5529 16.4152C77.756 15.9552 77.1234 15.3202 76.6552 14.5102C76.197 13.7002 75.9678 12.7802 75.9678 11.7502Z" fill="white"/>
<path d="M62.2504 12.8152C62.2504 11.9752 62.4147 11.2302 62.7435 10.5802C63.0822 9.93023 63.5354 9.43024 64.1032 9.08024C64.681 8.73024 65.3236 8.55523 66.0308 8.55523C66.6485 8.55523 67.1864 8.68024 67.6446 8.93023C68.1128 9.18024 68.4864 9.49523 68.7653 9.87523V8.69024H70.8722V17.0002H68.7653V15.7852C68.4963 16.1752 68.1228 16.5002 67.6446 16.7602C67.1764 17.0102 66.6335 17.1352 66.0159 17.1352C65.3186 17.1352 64.681 16.9552 64.1032 16.5952C63.5354 16.2352 63.0822 15.7302 62.7435 15.0802C62.4147 14.4202 62.2504 13.6652 62.2504 12.8152ZM68.7653 12.8452C68.7653 12.3352 68.6657 11.9002 68.4665 11.5402C68.2672 11.1702 67.9983 10.8902 67.6596 10.7002C67.3209 10.5002 66.9573 10.4002 66.5688 10.4002C66.1803 10.4002 65.8216 10.4952 65.4929 10.6852C65.1642 10.8752 64.8952 11.1552 64.686 11.5252C64.4868 11.8852 64.3871 12.3152 64.3871 12.8152C64.3871 13.3152 64.4868 13.7552 64.686 14.1352C64.8952 14.5052 65.1642 14.7902 65.4929 14.9902C65.8316 15.1902 66.1902 15.2902 66.5688 15.2902C66.9573 15.2902 67.3209 15.1952 67.6596 15.0052C67.9983 14.8052 68.2672 14.5252 68.4665 14.1652C68.6657 13.7952 68.7653 13.3552 68.7653 12.8452Z" fill="white"/>
<path d="M57.5714 8.57023C58.199 8.57023 58.7568 8.71023 59.2449 8.99023C59.7331 9.26023 60.1116 9.66523 60.3806 10.2052C60.6595 10.7352 60.799 11.3752 60.799 12.1252V17.0002H58.707V12.4102C58.707 11.7502 58.5426 11.2452 58.2139 10.8952C57.8852 10.5352 57.4369 10.3552 56.8691 10.3552C56.2913 10.3552 55.8331 10.5352 55.4944 10.8952C55.1656 11.2452 55.0013 11.7502 55.0013 12.4102V17.0002H52.9093V5.90023H55.0013V9.72523C55.2702 9.36523 55.6288 9.08523 56.0771 8.88523C56.5254 8.67523 57.0235 8.57023 57.5714 8.57023Z" fill="white"/>
<path d="M44.8742 9.89023C45.1431 9.51024 45.5117 9.19524 45.9799 8.94524C46.4581 8.68524 47.001 8.55523 47.6087 8.55523C48.3159 8.55523 48.9535 8.73024 49.5213 9.08024C50.0991 9.43024 50.5523 9.93023 50.8811 10.5802C51.2198 11.2202 51.3891 11.9652 51.3891 12.8152C51.3891 13.6652 51.2198 14.4202 50.8811 15.0802C50.5523 15.7302 50.0991 16.2352 49.5213 16.5952C48.9535 16.9552 48.3159 17.1352 47.6087 17.1352C47.001 17.1352 46.4631 17.0102 45.9949 16.7602C45.5366 16.5102 45.1631 16.1952 44.8742 15.8152V20.9602H42.7822V8.69024H44.8742V9.89023ZM49.2523 12.8152C49.2523 12.3152 49.1477 11.8852 48.9386 11.5252C48.7393 11.1552 48.4704 10.8752 48.1317 10.6852C47.8029 10.4952 47.4443 10.4002 47.0558 10.4002C46.6772 10.4002 46.3186 10.5002 45.9799 10.7002C45.6512 10.8902 45.3822 11.1702 45.173 11.5402C44.9738 11.9102 44.8742 12.3452 44.8742 12.8452C44.8742 13.3452 44.9738 13.7802 45.173 14.1502C45.3822 14.5202 45.6512 14.8052 45.9799 15.0052C46.3186 15.1952 46.6772 15.2902 47.0558 15.2902C47.4443 15.2902 47.8029 15.1902 48.1317 14.9902C48.4704 14.7902 48.7393 14.5052 48.9386 14.1352C49.1477 13.7652 49.2523 13.3252 49.2523 12.8152Z" fill="white"/>
<path d="M40.7154 5.90023V17.0002H38.6234V5.90023H40.7154Z" fill="white"/>
<path d="M34.3227 15.0052H30.1686L29.4813 17.0002H27.2847L31.0353 6.51523H33.4709L37.2215 17.0002H35.01L34.3227 15.0052ZM33.7548 13.3252L32.2456 8.94524L30.7364 13.3252H33.7548Z" fill="white"/>
<path d="M23.9081 12C23.9081 18.6274 18.5561 24 11.954 24C5.352 24 0 18.6274 0 12C0 5.37258 5.352 0 11.954 0C18.5561 0 23.9081 5.37258 23.9081 12Z" fill="#4B5EF5"/>
<path d="M11.9548 4.00078C16.3562 4.00078 19.9241 7.5825 19.9242 12.0008C19.9242 12.6626 19.8436 13.3056 19.6926 13.9207H16.5125C16.7596 13.3302 16.8958 12.6814 16.8958 12.0008C16.8958 9.26145 14.6836 7.04082 11.9548 7.04082C9.22598 7.04083 7.01386 9.26146 7.01385 12.0008C7.01385 14.7401 9.22597 16.9607 11.9548 16.9607H18.2081C16.7485 18.8125 14.4898 20.0008 11.9548 20.0008C7.55345 20.0008 3.98545 16.4191 3.98545 12.0008C3.98546 7.58251 7.55346 4.00079 11.9548 4.00078Z" fill="#F8F9FC"/>
<path d="M13.0706 10.0809C13.5106 10.0809 13.8672 10.439 13.8674 10.8807V13.1209C13.8674 13.5627 13.5108 13.9207 13.0706 13.9207H10.839C10.399 13.9205 10.0422 13.5626 10.0422 13.1209V10.8807C10.0425 10.4391 10.3992 10.0811 10.839 10.0809H13.0706Z" fill="#F8F9FC"/>
</svg>
